<?xml version="1.0" standalone="no"?>
<!DOCTYPE svg PUBLIC "-//W3C//DTD SVG 20010904//EN"
 "http://www.w3.org/TR/2001/REC-SVG-20010904/DTD/svg10.dtd">
<svg version="1.0" xmlns="http://www.w3.org/2000/svg"
 width="480.000000pt" height="480.000000pt" viewBox="0 0 480.000000 480.000000"
 preserveAspectRatio="xMidYMid meet">
<metadata>
Created by potrace 1.14, written by Peter Selinger 2001-2017
</metadata>
<g transform="translate(0.000000,480.000000) scale(0.100000,-0.100000)"
fill="#000000" stroke="none">
<path d="M1894 4140 c-12 -5 -28 -17 -35 -27 -24 -32 -45 -43 -100 -53 -37 -7
-63 -20 -85 -41 -17 -16 -43 -32 -58 -35 -65 -12 -152 -103 -163 -172 -4 -24
-21 -54 -49 -85 -24 -27 -43 -52 -42 -55 2 -12 -13 -86 -25 -116 -6 -16 -23
-43 -39 -60 -15 -17 -28 -36 -28 -42 0 -7 -4 -14 -9 -16 -17 -6 -20 -55 -4
-84 14 -28 14 -62 -2 -169 -2 -16 3 -59 12 -95 18 -73 18 -71 -1 -195 -14 -91
-15 -464 -1 -566 7 -55 -12 -81 -39 -54 -29 29 -74 39 -100 22 -63 -42 -76
-163 -40 -374 25 -145 35 -184 65 -251 33 -73 52 -87 112 -85 l52 2 78 -159
c43 -88 83 -160 88 -160 5 0 9 -5 9 -11 0 -39 168 -230 315 -357 67 -59 282
-201 314 -209 14 -3 31 -9 36 -13 12 -9 137 -47 180 -55 106 -19 231 -24 291
-14 23 5 61 10 84 13 23 3 58 10 79 16 54 17 56 17 61 17 11 -1 128 68 191
112 99 69 155 117 255 217 154 154 222 276 274 491 6 29 16 51 20 48 12 -7 48
33 65 70 12 26 27 83 39 150 2 11 7 31 10 45 3 14 8 36 10 50 3 14 9 48 15 77
32 160 30 256 -5 295 -14 15 -26 18 -52 13 -19 -3 -32 -3 -29 2 4 8 12 67 22
188 3 33 8 83 11 110 3 28 7 142 9 255 4 194 -4 291 -26 315 -5 5 -9 17 -9 26
0 10 -4 19 -8 21 -18 7 -74 97 -67 108 4 6 7 38 6 71 -1 105 -57 196 -174 283
-39 30 -88 68 -107 86 -50 43 -237 167 -262 172 -7 2 -15 6 -18 9 -7 9 -115
57 -145 65 -14 4 -68 28 -120 54 -91 46 -130 56 -290 74 -22 3 -71 17 -110 31
-81 31 -121 33 -203 10 -59 -17 -59 -17 -108 8 -57 29 -120 40 -150 27z"/>
</g>
</svg>
